<svg width="35" height="35" viewBox="0 0 35 35" fill="none" xmlns="http://www.w3.org/2000/svg">
<path d="M17.5 35C7.85057 35 0 27.1494 0 17.5C0 7.85057 7.85057 0 17.5 0C27.1494 0 35 7.85057 35 17.5C35 27.1494 27.1494 35 17.5 35ZM17.5 3.7157C9.89799 3.7157 3.7157 9.9001 3.7157 17.5C3.7157 25.0999 9.9001 31.2843 17.5 31.2843C25.0999 31.2843 31.2843 25.0999 31.2843 17.5C31.2843 9.89799 25.0999 3.7157 17.5 3.7157Z" fill="#F8AB27"/>
<path d="M26.726 12.3793C26.0014 11.6547 24.8239 11.6547 24.0993 12.3793L16.6869 19.7918L11.9391 15.0439C11.2145 14.3193 10.037 14.3193 9.31237 15.0439C8.58777 15.7685 8.58777 16.946 9.31237 17.6706L15.3746 23.7328C15.7369 24.0951 16.213 24.2763 16.689 24.2763C17.165 24.2763 17.639 24.0951 18.0034 23.7328C18.0371 23.6991 18.0666 23.6654 18.0961 23.6296C18.1319 23.6001 18.1656 23.5706 18.1993 23.5369L26.7302 15.006C27.4506 14.2814 27.4506 13.106 26.726 12.3793Z" fill="black"/>
</svg>
