<svg width="104" height="104" viewBox="0 0 104 104" fill="none" xmlns="http://www.w3.org/2000/svg">
<path d="M52 104C23.3274 104 0 80.6726 0 52C0 23.3274 23.3274 0 52 0C80.6726 0 104 23.3274 104 52C104 80.6726 80.6726 104 52 104ZM52 11.0409C29.4112 11.0409 11.0409 29.4174 11.0409 52C11.0409 74.5826 29.4174 92.9591 52 92.9591C74.5826 92.9591 92.9591 74.5826 92.9591 52C92.9591 29.4112 74.5826 11.0409 52 11.0409Z" fill="#D24A43"/>
<path d="M59.8051 52L71.8788 39.9263C74.0319 37.7732 74.0319 34.2744 71.8788 32.1213C69.7257 29.9682 66.2269 29.9682 64.0738 32.1213L52.0001 44.195L39.9264 32.1213C37.7733 29.9682 34.2745 29.9682 32.1214 32.1213C29.9683 34.2744 29.9683 37.7732 32.1214 39.9263L44.1951 52L32.1214 64.0737C29.9683 66.2268 29.9683 69.7256 32.1214 71.8787C33.198 72.9552 34.6125 73.4935 36.0271 73.4935C37.4416 73.4935 38.8499 72.9552 39.9327 71.8787L52.0063 59.805L64.08 71.8787C65.1566 72.9552 66.5711 73.4935 67.9856 73.4935C69.4002 73.4935 70.8085 72.9552 71.8913 71.8787C74.0444 69.7256 74.0444 66.2268 71.8913 64.0737L59.8051 52Z" fill="#D24A43"/>
</svg>
