<svg width="67" height="29" viewBox="0 0 67 29" fill="none" xmlns="http://www.w3.org/2000/svg">
<g clip-path="url(#clip0)">
<path d="M27.8137 19.3844C27.6449 18.8524 27.4885 18.3164 27.3567 17.7724C27.0355 16.4183 26.8544 15.044 26.7555 13.6738C26.6608 12.2996 26.665 10.9254 26.7885 9.5592C26.8585 8.87812 26.9367 8.19705 27.0767 7.52807C27.2126 6.86312 27.3773 6.17801 27.7355 5.59366C27.4267 6.20219 27.3238 6.88327 27.2414 7.55225C27.1591 8.22123 27.1344 8.89827 27.122 9.57532C27.1138 10.9254 27.2249 12.2754 27.4267 13.6013C27.6326 14.9272 27.9208 16.241 28.3367 17.5104C28.5425 18.1391 28.7814 18.7517 29.0408 19.3562L31.5113 19.3038C27.8137 9.29322 30.0619 0.47957 35.8964 2.44622C41.5539 4.35242 48.1872 11.9409 51.2506 18.8967L53.0952 18.8564C44.5349 1.41856 36.0611 -1.32991 31.3672 0.47957C31.3672 0.47957 22.7286 4.26376 18.1211 6.56892C13.5837 8.83782 12.0849 13.2588 12.8919 19.6947L27.8137 19.3844Z" fill="#4D4D4D"/>
<path d="M43.1268 11.5702C44.2797 13.0169 45.3132 14.5524 46.2232 16.1483C46.7502 17.0671 47.232 18.0101 47.6767 18.9693L49.0231 18.9411C48.4343 17.8046 47.792 16.7004 47.092 15.6365C46.0585 14.0567 44.9097 12.5535 43.6498 11.151C42.3898 9.7486 41.031 8.42675 39.5364 7.2661C38.7952 6.68175 38.0005 6.15785 37.1853 5.68231C36.3453 5.24304 35.4724 4.84809 34.5377 4.67883C36.3782 5.16244 37.9223 6.30696 39.3181 7.52C40.7181 8.74512 41.9781 10.1234 43.1268 11.5702Z" fill="#4D4D4D"/>
<path d="M58.308 22.6447L61.5073 26.3079L67 26.2918C65.9377 27.928 64.0313 29 61.7584 29.004C59.115 29.0121 56.6939 27.5774 55.3969 25.4818L13.7525 24.4299L48.5783 23.5554L6.22155 22.6527L47.4625 21.7742L0 20.8755L54.8534 19.8357C55.2816 18.8282 55.9939 17.9698 56.9121 17.3492C57.9168 16.6681 59.1644 16.2692 60.5479 16.2651C62.8207 16.2571 64.9289 17.317 66.3041 18.9451L60.8114 18.9612L58.308 22.6447Z" fill="#F8AB27"/>
</g>
<defs>
<clipPath id="clip0">
<rect width="67" height="29" fill="white"/>
</clipPath>
</defs>
</svg>
