<svg width="105" height="105" viewBox="0 0 105 105" fill="none" xmlns="http://www.w3.org/2000/svg">
<path d="M52.5 105C23.5517 105 0 81.4483 0 52.5C0 23.5517 23.5517 0 52.5 0C81.4483 0 105 23.5517 105 52.5C105 81.4483 81.4483 105 52.5 105ZM52.5 11.1471C29.694 11.1471 11.1471 29.7003 11.1471 52.5C11.1471 75.2997 29.7003 93.8529 52.5 93.8529C75.2997 93.8529 93.8529 75.2997 93.8529 52.5C93.8529 29.694 75.2997 11.1471 52.5 11.1471Z" fill="#F8AB27"/>
<path d="M80.1781 37.138C78.0043 34.9642 74.4719 34.9642 72.2981 37.138L50.0608 59.3753L35.8173 45.1318C33.6435 42.958 30.111 42.958 27.9372 45.1318C25.7634 47.3056 25.7634 50.838 27.9372 53.0118L46.1239 71.1985C47.2108 72.2854 48.639 72.8289 50.0671 72.8289C51.4953 72.8289 52.9171 72.2854 54.0103 71.1985C54.1114 71.0974 54.1999 70.9963 54.2884 70.8889C54.3958 70.8004 54.4969 70.7119 54.598 70.6108L80.1908 45.018C82.352 42.8442 82.352 39.3181 80.1781 37.138Z" fill="#F8AB27"/>
</svg>
