<svg width="85" height="85" viewBox="0 0 85 85" fill="none" xmlns="http://www.w3.org/2000/svg">
<g filter="url(#filter0_d)">
<circle cx="42.5" cy="37.5" r="27.5" fill="#F8AB27"/>
</g>
<path d="M36.6064 40.2695C36.4996 39.9328 36.4005 39.5935 36.3171 39.2491C36.1138 38.3919 35.9991 37.522 35.9366 36.6547C35.8766 35.7848 35.8792 34.9149 35.9574 34.0501C36.0017 33.6189 36.0513 33.1878 36.1399 32.7644C36.2259 32.3434 36.3301 31.9098 36.5569 31.5399C36.3614 31.9251 36.2963 32.3562 36.2441 32.7797C36.192 33.2031 36.1764 33.6317 36.1685 34.0603C36.1633 34.9149 36.2337 35.7695 36.3614 36.6088C36.4917 37.4481 36.6742 38.2797 36.9374 39.0833C37.0678 39.4812 37.2189 39.869 37.3831 40.2516L38.947 40.2185C36.6064 33.8817 38.0295 28.3026 41.7228 29.5475C45.304 30.7541 49.503 35.5577 51.4421 39.9608L52.6098 39.9353C47.1911 28.897 41.8271 27.1572 38.8558 28.3026C38.8558 28.3026 33.3875 30.698 30.4709 32.1572C27.5986 33.5934 26.6499 36.3919 27.1608 40.4659L36.6064 40.2695Z" fill="white"/>
<path d="M46.2997 35.323C47.0295 36.2389 47.6837 37.2108 48.2597 38.221C48.5933 38.8027 48.8983 39.3996 49.1798 40.0067L50.0321 39.9889C49.6593 39.2695 49.2527 38.5705 48.8096 37.897C48.1554 36.897 47.4282 35.9455 46.6307 35.0577C45.8331 34.17 44.973 33.3332 44.0269 32.5985C43.5577 32.2286 43.0547 31.897 42.5386 31.596C42.0069 31.3179 41.4543 31.0679 40.8627 30.9608C42.0277 31.2669 43.0051 31.9914 43.8887 32.7592C44.7749 33.5348 45.5725 34.4072 46.2997 35.323Z" fill="white"/>
<path d="M55.9095 42.3333L57.9346 44.6522L61.4116 44.642C60.7391 45.6777 59.5324 46.3563 58.0936 46.3588C56.4203 46.3639 54.8877 45.4557 54.0667 44.1292L27.7054 43.4634L49.7505 42.9098L22.9383 42.3384L49.0442 41.7823L19 41.2134L53.7227 40.5552C53.9937 39.9174 54.4447 39.3741 55.0259 38.9812C55.6618 38.5501 56.4516 38.2975 57.3274 38.295C58.7661 38.2899 60.1006 38.9608 60.9711 39.9914L57.4942 40.0016L55.9095 42.3333Z" fill="white"/>
<defs>
<filter id="filter0_d" x="0" y="0" width="85" height="85" filterUnits="userSpaceOnUse" color-interpolation-filters="sRGB">
<feFlood flood-opacity="0" result="BackgroundImageFix"/>
<feColorMatrix in="SourceAlpha" type="matrix" values="0 0 0 0 0 0 0 0 0 0 0 0 0 0 0 0 0 0 127 0"/>
<feOffset dy="5"/>
<feGaussianBlur stdDeviation="7.5"/>
<feColorMatrix type="matrix" values="0 0 0 0 0.1375 0 0 0 0 0.586 0 0 0 0 1 0 0 0 0.49 0"/>
<feBlend mode="normal" in2="BackgroundImageFix" result="effect1_dropShadow"/>
<feBlend mode="normal" in="SourceGraphic" in2="effect1_dropShadow" result="shape"/>
</filter>
</defs>
</svg>
