<svg width="27" height="27" viewBox="0 0 27 27" fill="none" xmlns="http://www.w3.org/2000/svg">
<circle cx="13.5" cy="13.5" r="12.75" stroke="#979797" stroke-width="1.5"/>
<path d="M10.6066 14.8596C10.5542 14.6943 10.5056 14.5277 10.4646 14.3586C10.3648 13.9379 10.3085 13.5108 10.2778 13.085C10.2484 12.658 10.2497 12.2309 10.288 11.8064C10.3098 11.5948 10.3341 11.3831 10.3776 11.1752C10.4198 10.9686 10.471 10.7557 10.5823 10.5741C10.4864 10.7632 10.4544 10.9749 10.4288 11.1827C10.4032 11.3906 10.3955 11.601 10.3917 11.8114C10.3891 12.2309 10.4237 12.6505 10.4864 13.0625C10.5503 13.4745 10.6399 13.8828 10.7691 14.2772C10.8331 14.4726 10.9073 14.663 10.9879 14.8508L11.7556 14.8345C10.6066 11.7237 11.3053 8.98491 13.1183 9.59604C14.8764 10.1884 16.9377 12.5465 17.8896 14.708L18.4629 14.6955C15.8028 9.2767 13.1695 8.42261 11.7109 8.98491C11.7109 8.98491 9.02645 10.1608 7.59467 10.8772C6.18465 11.5822 5.7189 12.956 5.96969 14.956L10.6066 14.8596Z" fill="#979797"/>
<path d="M15.3651 12.4313C15.7234 12.8809 16.0445 13.358 16.3273 13.854C16.4911 14.1395 16.6408 14.4325 16.779 14.7306L17.1974 14.7218C17.0144 14.3687 16.8148 14.0255 16.5973 13.6949C16.2761 13.204 15.9191 12.7369 15.5276 12.3011C15.1361 11.8653 14.7138 11.4545 14.2494 11.0938C14.0191 10.9122 13.7721 10.7494 13.5188 10.6017C13.2578 10.4652 12.9865 10.3424 12.696 10.2898C13.268 10.4401 13.7478 10.7958 14.1816 11.1727C14.6166 11.5534 15.0081 11.9817 15.3651 12.4313Z" fill="#979797"/>
<path d="M20.0828 15.8727L21.077 17.0111L22.7839 17.0061C22.4537 17.5145 21.8613 17.8476 21.155 17.8489C20.3336 17.8514 19.5812 17.4056 19.1782 16.7543L6.2372 16.4275L17.0593 16.1557L3.89697 15.8752L16.7126 15.6022L1.96362 15.3229L19.0093 14.9998C19.1424 14.6868 19.3637 14.42 19.6491 14.2271C19.9613 14.0155 20.3489 13.8915 20.7789 13.8903C21.4852 13.8878 22.1403 14.2171 22.5676 14.7231L20.8608 14.7281L20.0828 15.8727Z" fill="#979797"/>
</svg>
